{
    "accessors": {
        "accessor_55": {
            "bufferView": "bufferView_106",
            "byteOffset": 4608,
            "byteStride": 2,
            "componentType": 5123,
            "count": 5232,
            "max": [
                1183
            ],
            "min": [
                0
            ],
            "type": "SCALAR"
        },
        "accessor_58": {
            "bufferView": "bufferView_106",
            "byteOffset": 15072,
            "byteStride": 2,
            "componentType": 5123,
            "count": 168,
            "max": [
                1891
            ],
            "min": [
                0
            ],
            "type": "SCALAR"
        },
        "accessor_61": {
            "bufferView": "bufferView_106",
            "byteOffset": 15408,
            "byteStride": 2,
            "componentType": 5123,
            "count": 864,
            "max": [
                2187
            ],
            "min": [
                0
            ],
            "type": "SCALAR"
        },
        "accessor_63": {
            "bufferView": "bufferView_107",
            "byteOffset": 18752,
            "byteStride": 12,
            "componentType": 5126,
            "count": 2392,
            "max": [
                2.438,
                2.58437,
                1.396
            ],
            "min": [
                -2.43091,
                0.2668,
                -1.396
            ],
            "type": "VEC3"
        },
        "accessor_65": {
            "bufferView": "bufferView_107",
            "byteOffset": 47456,
            "byteStride": 12,
            "componentType": 5126,
            "count": 2392,
            "max": [
                1,
                1,
                1
            ],
            "min": [
                -1,
                -1,
                -1
            ],
            "type": "VEC3"
        },
        "accessor_67": {
            "bufferView": "bufferView_107",
            "byteOffset": 76160,
            "byteStride": 8,
            "componentType": 5126,
            "count": 2392,
            "max": [
                0.896458,
                0.997245
            ],
            "min": [
                0.00295639,
                0.015672
            ],
            "type": "VEC2"
        },
        "accessor_88": {
            "bufferView": "bufferView_106",
            "byteOffset": 0,
            "byteStride": 2,
            "componentType": 5123,
            "count": 2304,
            "max": [
                409
            ],
            "min": [
                0
            ],
            "type": "SCALAR"
        },
        "accessor_90": {
            "bufferView": "bufferView_107",
            "byteOffset": 0,
            "byteStride": 12,
            "componentType": 5126,
            "count": 586,
            "max": [
                0.4278,
                0.4278,
                1.058
            ],
            "min": [
                -0.4278,
                -0.4278,
                -1.058
            ],
            "type": "VEC3"
        },
        "accessor_92": {
            "bufferView": "bufferView_107",
            "byteOffset": 7032,
            "byteStride": 12,
            "componentType": 5126,
            "count": 586,
            "max": [
                0.999039,
                0.999038,
                1
            ],
            "min": [
                -0.999038,
                -0.999038,
                -1
            ],
            "type": "VEC3"
        },
        "accessor_94": {
            "bufferView": "bufferView_107",
            "byteOffset": 14064,
            "byteStride": 8,
            "componentType": 5126,
            "count": 586,
            "max": [
                0.993657,
                0.989576
            ],
            "min": [
                0.605093,
                0.00905001
            ],
            "type": "VEC2"
        },
        "animAccessor_0": {
            "bufferView": "bufferView_105",
            "byteOffset": 0,
            "byteStride": 16,
            "componentType": 5126,
            "count": 31,
            "max": [
                0,
                0,
                0.999019,
                1
            ],
            "min": [
                0,
                0,
                0,
                -0.996077
            ],
            "type": "VEC4"
        },
        "animAccessor_1": {
            "bufferView": "bufferView_105",
            "byteOffset": 496,
            "byteStride": 4,
            "componentType": 5126,
            "count": 31,
            "max": [
                1.25
            ],
            "min": [
                0
            ],
            "type": "SCALAR"
        }
    },
    "animations": {
        "animation_0": {
            "channels": [
                {
                    "sampler": "animation_0_rotation_sampler",
                    "target": {
                        "id": "_Geometry-mesh001Node_target_0",
                        "path": "rotation"
                    }
                }
            ],
            "parameters": {
                "TIME": "animAccessor_1",
                "rotation": "animAccessor_0"
            },
            "samplers": {
                "animation_0_rotation_sampler": {
                    "input": "TIME",
                    "interpolation": "LINEAR",
                    "output": "rotation"
                }
            }
        },
        "animation_1": {
            "channels": [
                {
                    "sampler": "animation_1_rotation_sampler",
                    "target": {
                        "id": "_meshInst962Node_target_1",
                        "path": "rotation"
                    }
                }
            ],
            "parameters": {
                "TIME": "animAccessor_1",
                "rotation": "animAccessor_0"
            },
            "samplers": {
                "animation_1_rotation_sampler": {
                    "input": "TIME",
                    "interpolation": "LINEAR",
                    "output": "rotation"
                }
            }
        }
    },
    "asset": {
        "generator": "collada2gltf@f8f6279915175e9d2cc525531660ac439c114fac",
        "premultipliedAlpha": true,
        "profile": {
            "api": "WebGL",
            "version": "1.0.2"
        },
        "version": "1.0.1"
    },
    "bufferViews": {
        "bufferView_105": {
            "buffer": "CesiumMilkTruck",
            "byteLength": 620,
            "byteOffset": 0
        },
        "bufferView_106": {
            "buffer": "CesiumMilkTruck",
            "byteLength": 17136,
            "byteOffset": 620,
            "target": 34963
        },
        "bufferView_107": {
            "buffer": "CesiumMilkTruck",
            "byteLength": 95296,
            "byteOffset": 17756,
            "target": 34962
        }
    },
    "buffers": {
        "CesiumMilkTruck": {
            "byteLength": 113052,
            "type": "arraybuffer",
            "uri": "data:application/octet-stream;base64,"
        }
    },
    "images": {
        "Image0001": {
            "name": "Image0001",
            "uri": "data:image/png;base64,"
        }
    },
    "materials": {
        "Effect-glass": {
            "name": "glass",
            "technique": "technique0",
            "values": {
                "diffuse": [
                    0,
                    0.0405063,
                    0.0212407,
                    1
                ],
                "shininess": 256,
                "specular": [
                    0.65,
                    0.65,
                    0.65,
                    1
                ]
            }
        },
        "Effect-truck": {
            "name": "truck",
            "technique": "technique1",
            "values": {
                "diffuse": "texture_Image0001",
                "shininess": 256,
                "specular": [
                    0.04,
                    0.04,
                    0.04,
                    1
                ]
            }
        },
        "Effect-wheels": {
            "name": "wheels",
            "technique": "technique1",
            "values": {
                "diffuse": "texture_Image0001",
                "shininess": 256,
                "specular": [
                    0.04,
                    0.04,
                    0.04,
                    1
                ]
            }
        },
        "Effect-window_trim": {
            "name": "window_trim",
            "technique": "technique0",
            "values": {
                "diffuse": [
                    0.064,
                    0.064,
                    0.064,
                    1
                ],
                "shininess": 256,
                "specular": [
                    0.04,
                    0.04,
                    0.04,
                    1
                ]
            }
        }
    },
    "meshes": {
        "Geometry-mesh001": {
            "name": "Wheels",
            "primitives": [
                {
                    "attributes": {
                        "NORMAL": "accessor_92",
                        "POSITION": "accessor_90",
                        "TEXCOORD_0": "accessor_94"
                    },
                    "indices": "accessor_88",
                    "material": "Effect-wheels",
                    "mode": 4
                }
            ]
        },
        "Geometry-mesh002": {
            "name": "Cesium_Milk_Truck",
            "primitives": [
                {
                    "attributes": {
                        "NORMAL": "accessor_65",
                        "POSITION": "accessor_63",
                        "TEXCOORD_0": "accessor_67"
                    },
                    "indices": "accessor_55",
                    "material": "Effect-truck",
                    "mode": 4
                },
                {
                    "attributes": {
                        "NORMAL": "accessor_65",
                        "POSITION": "accessor_63"
                    },
                    "indices": "accessor_58",
                    "material": "Effect-glass",
                    "mode": 4
                },
                {
                    "attributes": {
                        "NORMAL": "accessor_65",
                        "POSITION": "accessor_63"
                    },
                    "indices": "accessor_61",
                    "material": "Effect-window_trim",
                    "mode": 4
                }
            ]
        }
    },
    "nodes": {
        "Geometry-mesh001Node": {
            "children": [
                "_Geometry-mesh001Node_target_0"
            ],
            "matrix": [
                1,
                0,
                0,
                0,
                0,
                1,
                0,
                0,
                0,
                0,
                1,
                0,
                1.43267,
                0.427722,
                -2.98023e-08,
                1
            ]
        },
        "Geometry-mesh002Node": {
            "children": [
                "Geometry-mesh001Node",
                "meshInst962Node"
            ],
            "meshes": [
                "Geometry-mesh002"
            ],
            "name": "Cesium_Milk_Truck"
        },
        "_Geometry-mesh001Node_target_0": {
            "children": [],
            "meshes": [
                "Geometry-mesh001"
            ],
            "name": "Wheels",
            "rotation": [
                0,
                0,
                -0.0884859,
                0.996077
            ],
            "scale": [
                1,
                1,
                1
            ],
            "translation": [
                0,
                0,
                0
            ]
        },
        "_meshInst962Node_target_1": {
            "children": [],
            "meshes": [
                "Geometry-mesh001"
            ],
            "name": "Wheels__2_",
            "rotation": [
                0,
                0,
                -0.0884859,
                0.996077
            ],
            "scale": [
                1,
                1,
                1
            ],
            "translation": [
                0,
                0,
                0
            ]
        },
        "groupLocator006Node": {
            "children": [
                "txtrLocator003Node",
                "txtrLocator013Node"
            ],
            "name": "Texture_Group"
        },
        "meshInst962Node": {
            "children": [
                "_meshInst962Node_target_1"
            ],
            "matrix": [
                1,
                0,
                0,
                0,
                0,
                1,
                0,
                0,
                0,
                0,
                1,
                0,
                -1.35233,
                0.427722,
                -2.98023e-08,
                1
            ]
        },
        "polyRender006": {
            "children": [],
            "name": "Render"
        },
        "txtrLocator003Node": {
            "children": [],
            "name": "Cesium_Milk_Truck__2___Image___Texture_"
        },
        "txtrLocator013Node": {
            "children": [],
            "name": "Cesium_Milk_Truck__2___Image___2___Texture_"
        }
    },
    "programs": {
        "program_0": {
            "attributes": [
                "a_normal",
                "a_position"
            ],
            "fragmentShader": "CesiumMilkTruck0FS",
            "vertexShader": "CesiumMilkTruck0VS"
        },
        "program_1": {
            "attributes": [
                "a_normal",
                "a_position",
                "a_texcoord0"
            ],
            "fragmentShader": "CesiumMilkTruck1FS",
            "vertexShader": "CesiumMilkTruck1VS"
        }
    },
    "samplers": {
        "sampler_0": {
            "magFilter": 9729,
            "minFilter": 9987,
            "wrapS": 10497,
            "wrapT": 10497
        }
    },
    "scene": "defaultScene",
    "scenes": {
        "defaultScene": {
            "nodes": [
                "polyRender006",
                "Geometry-mesh002Node",
                "groupLocator006Node"
            ]
        }
    },
    "shaders": {
        "CesiumMilkTruck0FS": {
            "type": 35632,
            "uri": "data:text/plain;base64,"
        },
        "CesiumMilkTruck0VS": {
            "type": 35633,
            "uri": "data:text/plain;base64,"
        },
        "CesiumMilkTruck1FS": {
            "type": 35632,
            "uri": "data:text/plain;base64,"
        },
        "CesiumMilkTruck1VS": {
            "type": 35633,
            "uri": "data:text/plain;base64,"
        }
    },
    "skins": {},
    "techniques": {
        "technique0": {
            "attributes": {
                "a_normal": "normal",
                "a_position": "position"
            },
            "parameters": {
                "diffuse": {
                    "type": 35666
                },
                "modelViewMatrix": {
                    "semantic": "MODELVIEW",
                    "type": 35676
                },
                "normal": {
                    "semantic": "NORMAL",
                    "type": 35665
                },
                "normalMatrix": {
                    "semantic": "MODELVIEWINVERSETRANSPOSE",
                    "type": 35675
                },
                "position": {
                    "semantic": "POSITION",
                    "type": 35665
                },
                "projectionMatrix": {
                    "semantic": "PROJECTION",
                    "type": 35676
                },
                "shininess": {
                    "type": 5126
                },
                "specular": {
                    "type": 35666
                }
            },
            "program": "program_0",
            "states": {
                "enable": [
                    2929,
                    2884
                ]
            },
            "uniforms": {
                "u_diffuse": "diffuse",
                "u_modelViewMatrix": "modelViewMatrix",
                "u_normalMatrix": "normalMatrix",
                "u_projectionMatrix": "projectionMatrix",
                "u_shininess": "shininess",
                "u_specular": "specular"
            }
        },
        "technique1": {
            "attributes": {
                "a_normal": "normal",
                "a_position": "position",
                "a_texcoord0": "texcoord0"
            },
            "parameters": {
                "diffuse": {
                    "type": 35678
                },
                "modelViewMatrix": {
                    "semantic": "MODELVIEW",
                    "type": 35676
                },
                "normal": {
                    "semantic": "NORMAL",
                    "type": 35665
                },
                "normalMatrix": {
                    "semantic": "MODELVIEWINVERSETRANSPOSE",
                    "type": 35675
                },
                "position": {
                    "semantic": "POSITION",
                    "type": 35665
                },
                "projectionMatrix": {
                    "semantic": "PROJECTION",
                    "type": 35676
                },
                "shininess": {
                    "type": 5126
                },
                "specular": {
                    "type": 35666
                },
                "texcoord0": {
                    "semantic": "TEXCOORD_0",
                    "type": 35664
                }
            },
            "program": "program_1",
            "states": {
                "enable": [
                    2929,
                    2884
                ]
            },
            "uniforms": {
                "u_diffuse": "diffuse",
                "u_modelViewMatrix": "modelViewMatrix",
                "u_normalMatrix": "normalMatrix",
                "u_projectionMatrix": "projectionMatrix",
                "u_shininess": "shininess",
                "u_specular": "specular"
            }
        }
    },
    "textures": {
        "texture_Image0001": {
            "format": 6408,
            "internalFormat": 6408,
            "sampler": "sampler_0",
            "source": "Image0001",
            "target": 3553,
            "type": 5121
        }
    }
}